<?xml version="1.0" standalone="no"?>
<!DOCTYPE svg PUBLIC "-//W3C//DTD SVG 20010904//EN"
 "http://www.w3.org/TR/2001/REC-SVG-20010904/DTD/svg10.dtd">
<svg version="1.0" xmlns="http://www.w3.org/2000/svg"
 width="500.000000pt" height="500.000000pt" viewBox="0 0 500.000000 500.000000"
 preserveAspectRatio="xMidYMid meet">
<metadata>
Created by potrace 1.14, written by Peter Selinger 2001-2017
</metadata>
<g transform="translate(0.000000,500.000000) scale(0.100000,-0.100000)"
fill="#000000" stroke="none">
<path d="M0 3831 l0 -1169 91 -7 c186 -15 461 19 659 81 288 90 516 225 729
429 321 309 512 699 560 1147 12 106 15 566 5 642 l-7 46 -1018 0 -1019 0 0
-1169z"/>
<path d="M2754 4128 c-254 -258 -288 -301 -342 -430 -23 -55 -27 -77 -27 -173
0 -107 1 -112 38 -187 49 -102 146 -202 240 -248 94 -46 175 -51 276 -18 l73
25 -1506 -1506 c-828 -828 -1506 -1509 -1506 -1512 0 -4 8 -10 17 -13 13 -5
378 354 1557 1531 846 846 1531 1525 1522 1510 -57 -93 -73 -242 -36 -339 61
-162 254 -290 414 -275 164 15 265 84 569 385 l237 237 -632 632 c-348 348
-635 633 -639 633 -3 0 -117 -114 -255 -252z m601 -646 c-108 -107 -218 -207
-255 -230 -132 -86 -261 -102 -368 -48 -71 36 -155 124 -194 204 -29 58 -33
76 -32 142 2 150 52 230 313 493 l176 177 275 -275 275 -275 -190 -188z m645
-498 c-183 -185 -285 -270 -379 -317 -75 -37 -92 -42 -155 -42 -89 0 -143 25
-216 98 -91 91 -126 193 -101 294 24 97 85 178 285 381 l190 193 246 -246 245
-245 -115 -116z"/>
<path d="M4250 2014 c-402 -53 -770 -236 -1058 -526 -274 -277 -449 -613 -512
-984 -23 -136 -35 -347 -26 -437 l8 -67 1169 0 1169 0 0 983 0 983 -72 17
c-199 46 -471 58 -678 31z"/>
</g>
</svg>
